<svg xmlns="http://www.w3.org/2000/svg" viewBox="0 0 512 512" style="enable-background:new 0 0 512 512" xml:space="preserve"><path style="fill:#feb333" d="M462.101 390.921c0 62.72-92.274 113.566-206.1 113.566s-206.1-50.845-206.1-113.566v-89.947h412.2v89.947z" /><path style="fill:#fea001" d="M462.101 300.973c0 62.72-92.274 113.566-206.1 113.566s-206.1-50.845-206.1-113.566v-89.946h412.2v89.946z" /><path style="fill:#feb333" d="M462.101 211.027c0 62.72-92.274 113.566-206.1 113.566s-206.1-50.845-206.1-113.566V121.08h412.2v89.947z" /><path style="opacity:.1;enable-background:new" d="M110.018 423.485V121.08H49.901v269.84c0 38.453 34.69 72.437 87.758 92.982-17.629-17.975-27.641-38.551-27.641-60.417z" /><ellipse style="fill:#fea001" cx="256" cy="121.076" rx="206.102" ry="113.562" /><ellipse style="fill:#feb333" cx="256" cy="121.076" rx="138.42" ry="63.314" /><path d="M345.204 64.638a7.513 7.513 0 0 0-9.645 4.463 7.513 7.513 0 0 0 4.463 9.645c29.36 10.787 46.888 26.613 46.888 42.335 0 13.601-13.178 27.429-36.155 37.939-25.185 11.519-58.836 17.864-94.754 17.864s-69.571-6.344-94.755-17.864c-22.977-10.511-36.155-24.338-36.155-37.939s13.178-27.429 36.155-37.938c25.185-11.52 58.837-17.865 94.755-17.865 18.47 0 36.361 1.677 53.177 4.985a7.515 7.515 0 1 0 2.9-14.747c-17.769-3.495-36.635-5.267-56.077-5.267-38.03 0-73.902 6.827-101.007 19.227-28.976 13.254-44.933 31.581-44.933 51.606s15.957 38.352 44.933 51.606c27.105 12.398 62.977 19.226 101.007 19.226s73.901-6.827 101.006-19.226c28.976-13.254 44.933-31.582 44.933-51.606 0-22.625-20.68-43.198-56.736-56.444z" /><path d="M405.362 34.196C365.343 12.145 312.299 0 256.001 0S146.658 12.145 106.64 34.196C65.205 57.027 42.386 87.883 42.386 121.08v269.841c0 22.322 10.563 44.047 30.548 62.827 18.698 17.571 45.28 32.24 76.872 42.421a7.515 7.515 0 0 0 4.61-14.304c-59.833-19.282-97.001-54.129-97.001-90.942v-44.786c8.994 12.864 20.908 23.387 33.774 32.251 4.969 3.424 10.167 6.561 15.45 9.472 45.268 24.944 98.114 34.196 149.362 34.196 56.298 0 109.342-12.145 149.36-34.196 13.62-7.504 26.499-16.538 37.429-27.648 4.293-4.364 8.285-9.056 11.795-14.075v44.785c0 27.472-20.058 53.653-56.477 73.722-37.835 20.848-88.303 32.329-142.107 32.329-24.9 0-49.217-2.473-72.277-7.35a7.515 7.515 0 0 0-3.11 14.704C204.694 509.418 230.058 512 256 512c56.298 0 109.342-12.145 149.36-34.196 41.435-22.832 64.253-53.688 64.253-86.885V121.08c.003-33.198-22.817-64.053-64.251-86.884zm-7.253 160.605c-22.464 12.378-49.382 21.455-78.809 26.787-20.133 3.648-41.441 5.543-63.299 5.543-45.258 0-87.954-8.047-123.47-23.271a7.513 7.513 0 0 0-9.868 3.947 7.515 7.515 0 0 0 3.946 9.867c37.373 16.019 82.115 24.486 129.392 24.486 56.298 0 109.342-12.145 149.36-34.196 18.507-10.197 36.093-23.426 48.507-40.735.236-.33.486-.656.717-.987v44.785c0 10.684-3.063 21.184-8.919 31.194-11.18 19.11-32.54 36.434-62.2 49.829-6.057 2.735-5.574 11.484.523 13.829 2.536.975 5.139.2 7.494-.893 9.825-4.561 19.333-9.839 28.331-15.873 13.006-8.722 25.151-19.49 34.29-32.365.156-.22.328-.438.482-.659v44.885a56.79 56.79 0 0 1-.933 10.232c-4.182 22.844-22.315 44.34-52.178 61.59a193.127 193.127 0 0 1-3.367 1.9c-37.835 20.849-88.303 32.33-142.107 32.33-48.531 0-99.208-8.692-142.105-32.328-27.127-14.946-45.169-33.286-52.615-53.022-.052-.137-.11-.274-.161-.411-2.39-6.47-3.704-13.385-3.704-20.29V256.19c12.47 17.838 30.321 31.307 49.224 41.723 10.006 5.513 20.826 10.407 32.307 14.647.126.047.256.091.382.137 37.22 13.679 77.118 19.412 116.674 19.412 34.64 0 69.566-4.515 102.713-14.737a7.515 7.515 0 0 0-4.428-14.361c-29.847 9.204-63.834 14.069-98.285 14.069-36.504 0-73.443-5.086-107.967-17.211-11.752-4.128-23.224-9.104-34.139-15.117-27.127-14.946-45.169-33.286-52.615-53.022-.052-.137-.11-.274-.161-.411-2.393-6.479-3.704-13.381-3.704-20.29v-44.965c.067.097.14.192.208.29 7.259 10.34 16.447 19.365 26.486 26.994 3.54 2.69 7.17 5.253 10.903 7.668 2.672 1.728 6.023 2.029 8.744.169 4.362-2.983 4.25-9.679-.183-12.526-18.603-11.95-31.982-25.805-39.401-40.488-4.185-8.283-6.756-17.658-6.756-27.088 0-27.472 20.057-53.653 56.477-73.721C151.727 26.511 202.195 15.03 256 15.03c53.804 0 104.272 11.481 142.107 32.33 36.42 20.068 56.477 46.249 56.477 73.721 0 12.018-3.84 23.79-11.208 34.912-9.472 14.297-24.781 27.52-45.267 38.808z" /></svg>